HandBrake 20250906052339-dddf75f75-makepkg (2025100401)
OS: Arch Linux
Kernel: Linux 6.18.2-zen2-1-zen (x86_64)
CPU: Intel(R) Xeon(R) W-2135 CPU @ 3.70GHz x 12
Install Dir: /usr/bin
Config Dir:  /home/sudar/.config/ghb
_______________________________

[07:54:53] Compile-time hardening features are enabled
[07:54:53] nvenc: version 13.0 is available
[07:54:53] nvdec: is available
[07:54:53] CUDA Version: 6.1
[07:54:53] vcn: not available on this system
[07:54:53] qsv: not available on this system
[07:54:53] hb_init: starting libhb thread
[07:54:53] hb_init: starting libhb thread
[07:54:53] hb_init: starting libhb thread

(fr.handbrake.ghb:5): Gtk-WARNING **: 07:54:53.942: GtkGrid 0x55c4cc570440 (grid) reported min width 261 and natural width 260 in measure() with for_size=-1; natural size must be >= min size

(fr.handbrake.ghb:5): Gtk-CRITICAL **: 07:54:53.984: gtk_adjustment_configure: assertion 'lower + page_size <= upper' failed

(fr.handbrake.ghb:5): Gtk-WARNING **: 07:54:54.010: GtkGrid 0x55c4cc570440 (grid) reported min width 261 and natural width 260 in measure() with for_size=-1; natural size must be >= min size

(fr.handbrake.ghb:5): dconf-WARNING **: 07:55:04.492: failed to commit changes to dconf: Could not connect: Permission denied
[07:55:04] gtkgui: Excluded extension jpg
[07:55:04] gtkgui: Excluded extension png
[07:55:04] gtkgui: Excluded extension srt
[07:55:04] gtkgui: Excluded extension ssa
[07:55:04] gtkgui: Excluded extension ass
[07:55:04] gtkgui: Excluded extension txt
[07:55:04] CPU: Intel(R) Xeon(R) W-2135 CPU @ 3.70GHz
[07:55:04]  - logical processor count: 12
[07:55:04] Intel Quick Sync Video support: no
[07:55:04] hb_scan: path=/mnt/DVR/AABDAY/AABDAY.mkv, title_index=0
Input #0, matroska,webm, from '/mnt/DVR/AABDAY/AABDAY.mkv':
  Metadata:
    TIMECODE        : 01:00:00:00
    creation_time   : 2025-12-22T15:22:12.000000Z
    ENCODER         : Lavf60.3.100
  Duration: 00:00:07.17, start: 0.000000, bitrate: 49110 kb/s
  Stream #0:0: Video: prores (Standard) (apcn / 0x6E637061), yuv422p10le(tv, bt709, progressive), 1920x1080, 30 fps, 30 tbr, 1k tbn
      Metadata:
        ENCODER         : Apple ProRes 422
        DURATION        : 00:00:07.166000000
  Stream #0:1: Audio: flac, 48000 Hz, stereo, s32 (24 bit) (default)
      Metadata:
        DURATION        : 00:00:07.167000000
[07:55:04] scan: decoding previews for title 1
[07:55:04] scan: audio 0x1: flac, rate=48000Hz, bitrate=1 Unknown (FLAC, 2.0 ch)
[07:55:04] scan: 10 previews, 1920x1080, 30.000 fps, autocrop = 0/0/0/0, aspect 16:9, PAR 1:1, color profile: 1-1-1, chroma location: unspecified
[07:55:04] libhb: scan thread found 1 valid title(s)

(fr.handbrake.ghb:5): Gtk-WARNING **: 07:55:05.450: GtkGrid 0x55c4cc570440 (grid) reported min width 261 and natural width 260 in measure() with for_size=-1; natural size must be >= min size
[07:57:17] gtkgui: Modified Custom Preset: /Custom/NVENC (No Filters)
[07:57:17] Starting work at: Tue Dec 23 07:57:17 2025

[07:57:17] 1 job(s) to process
[07:57:17] json job:
{
    "Audio": {
        "AudioList": [
            {
                "Bitrate": 160,
                "CompressionLevel": -1.0,
                "DRC": 0.0,
                "DitherMethod": "auto",
                "Encoder": "av_aac",
                "Gain": 0.0,
                "Mixdown": "stereo",
                "Name": "Stereo",
                "NormalizeMixLevel": false,
                "PresetEncoder": "av_aac",
                "Quality": -3.0,
                "Samplerate": 0,
                "Track": 0
            }
        ],
        "CopyMask": [
            "copy:aac"
        ],
        "FallbackEncoder": "av_aac"
    },
    "Destination": {
        "AlignAVStart": true,
        "ChapterList": [
            {
                "Duration": {
                    "Hours": 0,
                    "Minutes": 0,
                    "Seconds": 7,
                    "Ticks": 645030
                },
                "Name": ""
            }
        ],
        "ChapterMarkers": false,
        "File": "/home/sudar/Downloads/AABDAY.mp4",
        "InlineParameterSets": false,
        "Mux": "m4v",
        "Options": {
            "IpodAtom": false,
            "Optimize": false
        }
    },
    "Filters": {
        "FilterList": [
            {
                "ID": 11,
                "Settings": {
                    "mode": 0
                }
            },
            {
                "ID": 20,
                "Settings": {
                    "crop-bottom": 0,
                    "crop-left": 0,
                    "crop-right": 0,
                    "crop-top": 0,
                    "height": 1080,
                    "width": 1920
                }
            },
            {
                "ID": 28,
                "Settings": {
                    "bottom": "0",
                    "color": "black",
                    "left": "0",
                    "right": "0",
                    "top": "0"
                }
            }
        ]
    },
    "Metadata": {
        "CreationTime": "2025-12-22T15:22:12.000000Z"
    },
    "PAR": {
        "Den": 1,
        "Num": 1
    },
    "SequenceID": 0,
    "Source": {
        "Angle": 0,
        "HWDecode": 0,
        "KeepDuplicateTitles": false,
        "Path": "/mnt/DVR/AABDAY/AABDAY.mkv",
        "Range": {
            "End": 1,
            "Start": 1,
            "Type": "chapter"
        },
        "Title": 1
    },
    "Subtitle": {
        "Search": {
            "Burn": true,
            "Default": false,
            "Enable": false,
            "Forced": false
        },
        "SubtitleList": []
    },
    "Video": {
        "AdapterIndex": -1,
        "AsyncDepth": 0,
        "ChromaLocation": 0,
        "ColorInputFormat": 0,
        "ColorMatrix": 1,
        "ColorOutputFormat": 0,
        "ColorPrimaries": 1,
        "ColorRange": 0,
        "ColorTransfer": 1,
        "Encoder": "nvenc_h264",
        "HardwareDecode": 0,
        "Level": "auto",
        "MultiPass": false,
        "Options": "",
        "PasshtruHDRDynamicMetadata": 6,
        "Preset": "medium",
        "Profile": "auto",
        "Quality": 16.0,
        "Tune": "",
        "Turbo": false
    }
}
[07:57:17] CPU: Intel(R) Xeon(R) W-2135 CPU @ 3.70GHz
[07:57:17]  - logical processor count: 12
[07:57:17] Intel Quick Sync Video support: no
[07:57:17] hb_scan: path=/mnt/DVR/AABDAY/AABDAY.mkv, title_index=1
Input #0, matroska,webm, from '/mnt/DVR/AABDAY/AABDAY.mkv':
  Metadata:
    TIMECODE        : 01:00:00:00
    creation_time   : 2025-12-22T15:22:12.000000Z
    ENCODER         : Lavf60.3.100
  Duration: 00:00:07.17, start: 0.000000, bitrate: 49110 kb/s
  Stream #0:0: Video: prores (Standard) (apcn / 0x6E637061), yuv422p10le(tv, bt709, progressive), 1920x1080, 30 fps, 30 tbr, 1k tbn
      Metadata:
        ENCODER         : Apple ProRes 422
        DURATION        : 00:00:07.166000000
  Stream #0:1: Audio: flac, 48000 Hz, stereo, s32 (24 bit) (default)
      Metadata:
        DURATION        : 00:00:07.167000000
[07:57:17] scan: decoding previews for title 1
[07:57:17] scan: audio 0x1: flac, rate=48000Hz, bitrate=1 Unknown (FLAC, 2.0 ch)
[07:57:18] scan: 10 previews, 1920x1080, 30.000 fps, autocrop = 0/0/0/0, aspect 16:9, PAR 1:1, color profile: 1-1-1, chroma location: unspecified
[07:57:18] libhb: scan thread found 1 valid title(s)
[07:57:18] Starting Task: Encoding Pass
[07:57:18] work: skipping crop/scale filter
[07:57:18] job configuration:
[07:57:18]  * source
[07:57:18]    + /mnt/DVR/AABDAY/AABDAY.mkv
[07:57:18]    + title 1, chapter(s) 1 to 1
[07:57:18]    + container: matroska,webm
[07:57:18]    + data rate: 49110 kbps
[07:57:18]  * destination
[07:57:18]    + /home/sudar/Downloads/AABDAY.mp4
[07:57:18]    + container: MPEG-4 (libavformat)
[07:57:18]      + align initial A/V stream timestamps
[07:57:18]  * video track
[07:57:18]    + decoder: prores 10-bit (yuv422p10le)
[07:57:18]    + filters
[07:57:18]      + Framerate Shaper (mode=0)
[07:57:18]        + frame rate: same as source (around 30.000 fps)
[07:57:18]      + Pad (color=black:top=0:bottom=0:left=0:right=0)
[07:57:18]      + Format (format=yuv420p)
[07:57:18]    + Output geometry
[07:57:18]      + storage dimensions: 1920 x 1080
[07:57:18]      + pixel aspect ratio: 1 : 1
[07:57:18]      + display dimensions: 1920 x 1080
[07:57:18]    + encoder: H.264 (NVEnc)
[07:57:18]      + preset:  medium
[07:57:18]      + profile: auto
[07:57:18]      + level:   auto
[07:57:18]      + quality: 16.00 (CQ)
[07:57:18]      + color profile: 1-1-1
[07:57:18]      + color range: tv
[07:57:18]      + chroma location: unspecified
[07:57:18]  * audio track 1
[07:57:18]    + name: Stereo
[07:57:18]    + decoder: Unknown (FLAC, 2.0 ch) (track 1, id 0x1)
[07:57:18]      + samplerate: 48000 Hz
[07:57:18]    + mixdown: Stereo
[07:57:18]    + encoder: AAC (libavcodec)
[07:57:18]      + bitrate: 160 kbps, samplerate: 48000 Hz
[07:57:18] sync: expecting 215 video frames
[07:57:18] encavcodecInit: H.264 (Nvidia NVENC)
[07:57:18] encavcodec: encoding at rc=vbr, 16.00
[07:57:18] encavcodec: encoding with stored aspect 1/1
[07:57:18] encavcodecInit: Unknown avcodec option s12m_tc
[07:57:18] sync: first pts video is 0
[07:57:18] sync: Chapter 1 at frame 1 time 0
[07:57:18] sync: first pts audio 0x1 is 0
[07:57:18] reader: done. 1 scr changes
[07:57:19] work: average encoding speed for job is 0.000000 fps
[07:57:19] vfr: 215 frames output, 0 dropped
[07:57:19] vfr: lost time: 0 (0 frames)
[07:57:19] vfr: gained time: 0 (0 frames) (0 not accounted for)
[07:57:19] flac-decoder done: 75 frames, 0 decoder errors
[07:57:19] prores-decoder done: 215 frames, 0 decoder errors
[07:57:19] sync: got 215 frames, 215 expected
[07:57:19] sync: framerate min 30.000 fps, max 30.000 fps, avg 30.000 fps
[07:57:19] mux: track 0, 215 frames, 6415485 bytes, 7128.32 kbps, fifo 256
[07:57:19] mux: track 1, 336 frames, 31609 bytes, 35.12 kbps, fifo 512
[07:57:19] Finished work at: Tue Dec 23 07:57:19 2025

[07:57:19] libhb: work result = 0

(fr.handbrake.ghb:5): GLib-GIO-CRITICAL **: 07:57:19.690: g_bus_watch_name_on_connection: assertion 'G_IS_DBUS_CONNECTION (connection)' failed

(fr.handbrake.ghb:5): GLib-GIO-CRITICAL **: 07:57:19.690: g_dbus_connection_signal_subscribe: assertion 'G_IS_DBUS_CONNECTION (connection)' failed

(fr.handbrake.ghb:5): GLib-GIO-CRITICAL **: 07:57:19.690: g_dbus_connection_call_internal: assertion 'G_IS_DBUS_CONNECTION (connection)' failed

(fr.handbrake.ghb:5): GLib-GIO-CRITICAL **: 07:57:19.690: g_bus_watch_name_on_connection: assertion 'G_IS_DBUS_CONNECTION (connection)' failed

(fr.handbrake.ghb:5): GLib-GIO-CRITICAL **: 07:57:19.690: g_dbus_connection_signal_subscribe: assertion 'G_IS_DBUS_CONNECTION (connection)' failed

(fr.handbrake.ghb:5): GLib-GIO-CRITICAL **: 07:57:19.690: g_dbus_connection_call_internal: assertion 'G_IS_DBUS_CONNECTION (connection)' failed
